# xmcd
#
# Track frame offsets:
#	150
#	15492
#	32012
#	50145
#	65540
#	80387
#	95827
#	114395
#	130847
#	146640
#	161877
#	178445
#	191685
#	204322
#	219690
#	237610
#
# Disc length: 3387 seconds
#
# Revision: 0
# Processed by: cddbd v1.5.2PL0 Copyright (c) Steve Scherf et al.
# Submitted via: audiograbber 1.83.01
#
DISCID=f40d3910
DTITLE=Top Hits Monthly - thmpl05
DYEAR=1900
DGENRE=
TTITLE0=Carpenter, Mary Chapin - I Feel Lucky
TTITLE1=Carpenter, Mary Chapin - Shut Up And Kiss Me
TTITLE2=Carpenter, Mary Chapin - He Thinks He'll Keep Her
TTITLE3=Carpenter, Mary Chapin - I Take My Chances
TTITLE4=Carpenter, Mary Chapin - Passionate Kisses
TTITLE5=Carpenter, Mary Chapin - Not Too Much To Ask
TTITLE6=Carpenter, Mary Chapin - The Hard Way
TTITLE7=Carpenter, Mary Chapin - Quittin' Time
TTITLE8=Carpenter, Mary Chapin - House Of Cards
TTITLE9=Carpenter, Mary Chapin - Going Out Tonight
TTITLE10=Carpenter, Mary Chapin - You Win Again
TTITLE11=Carpenter, Mary Chapin - Something Of A Dreamer
TTITLE12=Carpenter, Mary Chapin - Right Now
TTITLE13=Carpenter, Mary Chapin - Down At The Twist And Shout
TTITLE14=Carpenter, Mary Chapin - The Bug
TTITLE15=Carpenter, Mary Chapin - Tender When I Want To Be
EXTD=
EXTT0=
EXTT1=
EXTT2=
EXTT3=
EXTT4=
EXTT5=
EXTT6=
EXTT7=
EXTT8=
EXTT9=
EXTT10=
EXTT11=
EXTT12=
EXTT13=
EXTT14=
EXTT15=
PLAYORDER=
